<svg xmlns="http://www.w3.org/2000/svg" viewBox="0 0 252.37 164.9"><title>pipeline</title><g id="レイヤー_2" data-name="レイヤー 2"><g id="レイヤー_10" data-name="レイヤー 10"><path d="M2.51,33a14.26,14.26,0,0,1,5.32-.33c3,.56,5,3.44,6.8,5.67l.24.28c2.4-4.78,2.51-10.22,2.51-15.25C10.63,23.72,4.19,25.78,2.51,33Z" fill="#727171"/><path d="M3.17,35.39c2.59-.49,4.71-.68,6.74,1.24,1.2,1.13,2.11,2.51,3.19,3.74A2.51,2.51,0,0,0,17,39.87c2.45-5.25,2.84-10.79,2.86-16.51a2.52,2.52,0,0,0-2.5-2.5C9.62,21.35,2.29,24.13.1,32.32c-.83,3.11,4,4.44,4.82,1.33,1.57-5.88,7-7.44,12.47-7.79l-2.5-2.5c0,4.77-.12,9.59-2.17,14l3.93-.51c-1.78-2-3.24-4.26-5.64-5.63C8.15,29.59,4.93,30,1.84,30.57S0,36,3.17,35.39Z" fill="#727171"/><path d="M17,23.36c0,5-.1,10.47-2.13,15.25a23.69,23.69,0,0,0,12,9l.19-23.78A65,65,0,0,0,17,23.36Z" fill="#ecdc82" stroke="#ecdc82" stroke-linecap="square" stroke-miterlimit="10" stroke-width="5"/><path d="M94.29,135.24a200.5,200.5,0,0,1-14.61,15.34,1.51,1.51,0,0,1-2.42.15l-7.08-5a2.57,2.57,0,0,0-1.2-.56,2.51,2.51,0,0,0-1.76.84,24.79,24.79,0,0,0-7.54,10.66" fill="none" stroke="#ecdc82" stroke-linecap="round" stroke-miterlimit="10" stroke-width="5"/><path d="M76.81,151.46a18.61,18.61,0,0,0-8.17,10.94" fill="none" stroke="#ecdc82" stroke-linecap="round" stroke-miterlimit="10" stroke-width="5"/><path d="M59.43,125.59l-9.65,8.23L47,136.17q.44,2-1-.33c-1.45-1-2.61-2.57-4-3.65-5.33-4-9.9,4.09-13.19,7.73-2.15,2.38,1.37,5.93,3.54,3.54s5-6.53,8-8.11H37.84c3.41,1.76,5.67,7.72,10,6.38,2.36-.72,5-4,6.83-5.55L63,129.12c2.45-2.09-1.1-5.61-3.54-3.54Z" fill="#c1b9a3"/><path d="M43.43,137.69a80.81,80.81,0,0,0-7.34,8.51,2.52,2.52,0,0,0,.9,3.42,2.56,2.56,0,0,0,3.42-.9,71.77,71.77,0,0,1,6.56-7.5c2.28-2.28-1.26-5.82-3.54-3.54Z" fill="#c1b9a3"/><path d="M61.16,119c-1.2,3.45,1.44,7.45,5,8.43s7.39-.6,9.94-3.22" fill="#c1b9a3"/><path d="M58.75,118.3a9.5,9.5,0,0,0,5.37,11c4.79,2.19,10.14.06,13.7-3.36,2.33-2.23-1.21-5.76-3.54-3.54-1.93,1.84-4.75,3.42-7.5,2.58a4.5,4.5,0,0,1-3.22-5.35c.83-3.11-4-4.44-4.82-1.33Z" fill="#c1b9a3"/><path d="M30.78,23.72C30.38,39.47,30,55.37,33,70.83s9.79,30.67,21.62,41.08a56.08,56.08,0,0,0,26.95,12.94c2,.36,4.15.67,5.7,2A17.61,17.61,0,0,1,90,130.56c4,5.81,13,7.4,18.71,3.32,1.73-1.23,3.23-2.91,5.25-3.56a12.35,12.35,0,0,1,4.46-.28c14.27.75,28.5-.77,41.77-5.93,6-2.33,13.47-1.41,19.84-2.15a156.26,156.26,0,0,0,22.57-4.35c2.81-.76,6.24-2.49,5.89-5.38a96.54,96.54,0,0,1-41.86-10.16c-10.94-5.46-23.37-5.64-33.3-13.79-18.08-14.85-12.81-44.08-31.67-58.37-5.51-4.17-12.36-6.13-19.14-7.48a136.42,136.42,0,0,0-30.91-2.55c-1.62.05-15,1.88-20.34,3.67" fill="#f1f1ef"/><path d="M28.28,23.72c-.87,34.52.18,78,34.7,97.1a59.93,59.93,0,0,0,11.41,4.85c2.15.66,4.33,1.14,6.53,1.59,3.67.75,5.4,2.72,7.69,5.55a16.45,16.45,0,0,0,15.69,5.55,17.43,17.43,0,0,0,7.46-3.69c4.75-3.62,12.09-1.82,17.82-2a97.74,97.74,0,0,0,28.69-5.16c10.22-3.58,21.29-2.61,31.93-4.52,6.47-1.16,20.28-1.9,20.82-10.73a2.53,2.53,0,0,0-2.5-2.5,96.53,96.53,0,0,1-27.81-4.6c-7.87-2.55-15-6.69-22.94-9.14s-16.13-4.21-22.65-9.49c-5.32-4.3-8.7-10.36-11.11-16.66C119.7,58.59,117.93,46.07,110.9,36c-8.61-12.31-22.84-15.68-37-17.53-14.32-1.88-29.38-1.77-43.29,2.64-3.06,1-1.75,5.8,1.33,4.82,12-3.79,24.75-4.21,37.14-3,16.36,1.57,32.75,5.16,40.66,21,5.54,11.09,6.92,23.78,12.78,34.75C129.35,91.41,141,96.2,154.2,100.12c8.69,2.59,16.56,7,25.18,9.81a101.38,101.38,0,0,0,29.13,4.77l-2.5-2.5c-.2,3.29-9.28,4.3-11.51,4.79a126.14,126.14,0,0,1-15.26,2.52c-7.82.71-14.8.49-22.3,3.12a93,93,0,0,1-27.36,5c-6.77.25-14.33-1.78-20.11,2.48-3.37,2.49-6.35,4.2-10.71,3.29s-5.86-3.74-8.48-6.95c-2-2.4-4.29-3.26-7.28-3.88a64,64,0,0,1-13-3.83C54.75,112,44.38,98.61,38.94,83.14c-6.69-19-6.16-39.53-5.66-59.42.08-3.22-4.92-3.22-5,0Z" fill="#f1f1ef"/><path d="M180.05,121.94c9.44-1.11,19-2.8,28.34-4.81,5.38-1.16,11.49-3.32,13.2-8.55-17.91.42-38.53,1.66-54.94-6.53-7.11-3.55-12.36-9.87-18.09-15.39-2.33-2.25-4.17-4.14-7.7-3.13a10.7,10.7,0,0,0-7,6.59,5.36,5.36,0,0,0-.24,3.36,7.16,7.16,0,0,0,2.54,3.1q5.72,4.76,11.47,9.48c3.35,2.75,6,5.82,9.26,8.69a41.54,41.54,0,0,0,10,6.81C170.64,123.29,176,122.42,180.05,121.94Z" fill="#beb1b5"/><path d="M180.05,124.44a266.25,266.25,0,0,0,29.63-5c6.16-1.47,11.81-4,14.32-10.15.62-1.51-.94-3.2-2.41-3.16-15.55.38-31.76,1.45-46.78-3.41-8.08-2.61-14-7.33-20-13.26-3.45-3.47-7.39-9-12.91-8.61-5.16.41-10.25,5.15-10.91,10.32-.83,6.5,7.68,10.83,11.93,14.33,6.16,5.07,11.42,11.32,18.12,15.71,6.25,4.09,11.7,4.15,19,3.27,3.15-.38,3.19-5.39,0-5a46.61,46.61,0,0,1-8.23.62c-3.66-.21-6.74-2.1-9.64-4.2-5.64-4.09-10.29-9.5-15.67-13.93-2.63-2.17-5.28-4.32-7.88-6.52-3.53-3-1.88-8.63,2.91-9.47s11.09,8.48,14.38,11.47c17.68,16,43.47,14.22,65.68,13.68l-2.41-3.16c-2.39,5.85-10.78,6.69-16.13,7.77-7.62,1.54-15.29,2.81-23,3.74C176.9,119.82,176.86,124.83,180.05,124.44Z" fill="#beb1b5"/><path d="M30.78,22.89c-.28,11.1-.56,22.23.37,33.31.62,7.38.8,14.4,8.38,18A24.6,24.6,0,0,0,49,76.34a29.36,29.36,0,0,0,7.48-.48,21.54,21.54,0,0,0,10.87-6.1c3.08-3.16,3.64-7.65,8.43-8.59,8.17-1.61,15.56,5.65,21.93,9.7,6.67,4.23,13.35,8.45,20.11,12.53,5.41,3.26,12.4,7.68,19,6.6-1.17-.85-2.4-1.63-3.53-2.56-18.08-14.85-12.81-44.08-31.67-58.37-5.51-4.17-12.36-6.13-19.14-7.48A136.42,136.42,0,0,0,51.64,19c-1.62.05-15,1.88-20.34,3.67" fill="#beb1b5"/><path d="M28.28,22.89c-.23,9.14-.47,18.3,0,27.44.29,5.85.19,12.61,2.5,18.11C35.65,80.12,53,81.3,63,76.14a23,23,0,0,0,7-5.59c2-2.43,3-6.15,6.47-7,6.95-1.66,14.2,5.6,19.44,9.07,7.18,4.75,14.56,9.26,22,13.67,5.84,3.48,12,6.88,19,6.17a2.52,2.52,0,0,0,1.26-4.66C117.58,73.29,123.27,43.2,104,27.71,92.84,18.76,76,17.26,62.32,16.62A92.09,92.09,0,0,0,30.63,20.3c-3.06,1-1.75,5.8,1.33,4.82,10.05-3.18,20.87-4,31.33-3.45,14.11.77,32.07,2.43,41.77,14.06,7.28,8.73,9.32,20.5,12.85,31s8.57,19,17.72,25.43l1.26-4.66c-7.27.74-13.52-3.67-19.45-7.28-6.56-4-13.18-8-19.55-12.25C90.78,63.19,78.58,53,70.3,61.5c-1.65,1.69-2.6,3.91-4.08,5.74a18.2,18.2,0,0,1-9.6,6c-6.87,1.75-17.84.91-21.12-6.47C33,61.11,33.35,53.48,33.15,47.4c-.28-8.17-.07-16.34.14-24.5.08-3.22-4.92-3.22-5,0Z" fill="#beb1b5"/><path d="M137.31,98.54c-3.54-.33-43.92-3.93-43.91-4.13,1.38-26.18,7-53.25,13.84-78.53,1-3.89,2.31-8,5.42-10.56,4.1-3.34,10-2.91,15.24-2.3l90.44,10.5c.5,2.13-2.12,3.54-4.22,4.13C201.47,21.17,187.5,24.77,180,35.52c-6.5,9.26-6.46,21.4-7.63,32.66S167.38,92,157.15,96.84C151.07,99.71,144,99.15,137.31,98.54Z" fill="#beb1b5"/><path d="M137.31,96,114.54,94q-7.11-.65-14.21-1.33l-4.55-.45a11.29,11.29,0,0,0-1.72-.2l1.84,2.41a328,328,0,0,1,6.65-48.34C104.23,38,106.14,30,108.21,22c2-7.75,3.38-16.5,13.09-16.87,7.36-.28,15,1.38,22.33,2.23L168.2,10.2,218.34,16l-2.5-2.5c0,2.25-13.13,4.82-15.19,5.53a60.86,60.86,0,0,0-13.16,6.07c-8.84,5.69-13.73,14.3-15.62,24.52C169.94,60.07,170.68,71,167,81.08c-1.9,5.22-5,10.2-9.93,13-5.94,3.35-13.27,2.55-19.78,2-3.2-.29-3.18,4.71,0,5,11.42,1,22.7.38,30-9.65,6.75-9.32,7.32-21.15,8.36-32.17.66-7,1.61-14.25,5.19-20.41,3.26-5.6,8.47-9.41,14.23-12.16,5.6-2.67,11.64-4.34,17.6-6,3.81-1.06,8.21-2.46,8.18-7.13a2.57,2.57,0,0,0-2.5-2.5L163.29,4.63l-27.53-3.2c-6.81-.79-15.1-2.85-21.67.13-6,2.7-7.93,8.68-9.51,14.55q-3.45,12.82-6.26,25.81A341.74,341.74,0,0,0,90.89,94.4a2.57,2.57,0,0,0,1.84,2.41c1.91.78,4.82.56,6.84.76q7,.68,13.94,1.31l23.8,2.16C140.51,101.33,140.49,96.33,137.31,96Z" fill="#beb1b5"/><path d="M121.62,81.15a64.39,64.39,0,0,1-6.48,5.16c-1.41,1-21.91,11.38-21.74,8.08,1.38-26.18,7-53.25,13.84-78.52,1-3.89,2.31-8,5.42-10.56,4.1-3.34,10-2.91,15.24-2.3l90.44,10.5c.5,2.13-2.12,3.54-4.22,4.13-16.9,4.71-33.61,6.83-49.41,15.3-9,4.83-17.54,11-23.25,19.51-3,4.52-5.22,9.56-8,14.25A62.86,62.86,0,0,1,121.62,81.15Z" fill="#b56375"/><path d="M119.85,79.38c-6.25,5.53-13.76,9.3-21.61,12.09-.79.28-2.92,1.37-3.77,1.06,2.26.84,1.68-2.37,1.79-3.76q.28-3.77.67-7.53c.89-8.64,2.19-17.24,3.77-25.78,1.45-7.84,3.13-15.63,5-23.38q1.43-6,3-11.92c1-3.69,1.69-8,4-11.1C117.42,2.6,128,5.54,134.78,6.32l25.56,3,58,6.73-2.5-2.5c0,2.4-12.73,4.36-14.58,4.8-5.17,1.23-10.36,2.42-15.48,3.85A105.44,105.44,0,0,0,157.83,34c-7.45,4.67-14.22,10.51-19,17.93-3,4.56-5.11,9.58-7.95,14.22a63.26,63.26,0,0,1-11,13.22c-2.36,2.2,1.18,5.73,3.54,3.54,8.2-7.64,12.73-16.61,18.3-26.13,5.81-9.93,15-16.88,25.09-22.12,10.42-5.42,21.85-8.22,33.2-10.92,5.19-1.23,10.91-2.06,15.87-4.06,2.85-1.15,5-2.94,5-6.18a2.57,2.57,0,0,0-2.5-2.5L156.4,3.83C146.19,2.64,136,1.2,125.72.29c-6.43-.57-13.28.21-17.23,5.94-4.82,7-5.92,17.36-7.84,25.45C98.35,41.3,96.34,51,94.72,60.74c-1.6,9.6-2.83,19.27-3.53,29-.29,4.06-.88,8.34,4.4,7.7,4.86-.59,9.88-3.45,14.22-5.54a56.67,56.67,0,0,0,13.57-9C125.8,80.78,122.25,77.26,119.85,79.38Z" fill="#b56375"/><path d="M50.82,98.91a21.79,21.79,0,0,0,6.3,7c2.1,1.55,4.59-1.4,3.42-3.42A28.39,28.39,0,0,0,55,95.64a2.57,2.57,0,0,0-3-.39,2.5,2.5,0,0,0-1.15,2.82,14.71,14.71,0,0,0,4.92,6.43,2.52,2.52,0,0,0,3.42-.9,2.56,2.56,0,0,0-.9-3.42,8.42,8.42,0,0,1-2.62-3.44l-4.18,2.43a24,24,0,0,1,4.78,5.88l3.42-3.42a16.08,16.08,0,0,1-4.5-5.25c-1.56-2.82-5.88-.3-4.32,2.52Z" fill="#dededd"/><path d="M62,95.52a9.91,9.91,0,0,0,3.68,3.58,2.55,2.55,0,0,0,3-.39,2.66,2.66,0,0,0,.39-3,9.66,9.66,0,0,0-2.64-3.56A2.5,2.5,0,0,0,63,95.66l.67.8a2.51,2.51,0,0,0,3.54,0,2.57,2.57,0,0,0,0-3.54l-.67-.8L63,95.66a8.62,8.62,0,0,1,.67.62l.27.3c.09.1.32.48,0,0a11.15,11.15,0,0,1,.88,1.58l3.42-3.42c-.26-.14-.5-.31-.75-.46s.29.27,0,0L67.16,94c-.1-.1-.53-.43-.53-.57l.15.2-.17-.24c-.09-.14-.18-.27-.26-.41A2.5,2.5,0,0,0,62,95.52Z" fill="#dededd"/><path d="M71.32,89.69a4.39,4.39,0,0,0,2,2.05A2.51,2.51,0,0,0,77,88.92a4.34,4.34,0,0,0-3-3.12,2.52,2.52,0,0,0-2.82,1.15,3,3,0,0,0-.34,1.26A2.47,2.47,0,0,0,71.54,90l1.1.86a2.73,2.73,0,0,0,1.77.73,2.54,2.54,0,0,0,1.77-.73c.82-.9,1.1-2.68,0-3.54l-1.1-.86-2.43,4.18c.41.13-.42-.21-.15-.05s-.45-.42-.13-.08c-.07-.07-.29-.46-.15-.17-.29-.57-.12-.3-.07-.07l3.67-2.82a1.17,1.17,0,0,0-.26-.14c.11,0,.48.35.12.06-.19-.15.21.38.13.16s-.12-.22-.16-.33A2.5,2.5,0,0,0,74.15,86a2.55,2.55,0,0,0-1.93.25,2.52,2.52,0,0,0-1.15,1.49,2.94,2.94,0,0,0,.25,1.93Z" fill="#dededd"/><path d="M55.49,31.64A12.82,12.82,0,0,0,46,37.23a5.77,5.77,0,1,0,9.52-5.59Z" fill="#727171"/><circle cx="222.1" cy="63.69" r="28.77" fill="#af6071" stroke="#bdb0b4" stroke-miterlimit="10" stroke-width="3"/><path d="M211.83,46.71A73.93,73.93,0,0,1,222.39,46q7.2,0,10.8,2.86t3.6,8.28q0,6-3.48,9.07T223,69.27a44,44,0,0,1-4.56-.19V81.51h-6.62Zm6.62,17.18a25.22,25.22,0,0,0,3.94.29,9,9,0,0,0,5.93-1.7,6,6,0,0,0,2-4.87q0-6.38-8-6.38a24.64,24.64,0,0,0-3.94.29Z" fill="#fff"/></g></g></svg>