<svg xmlns="http://www.w3.org/2000/svg" viewBox="0 0 282.85 252.94"><title>logo</title><g id="レイヤー_2" data-name="レイヤー 2"><g id="レイヤー_9" data-name="レイヤー 9"><path d="M8.9,39.79a17.54,17.54,0,0,1,6.54-.4c3.74.69,6.12,4.23,8.36,7l.3.34C27.06,40.83,27.2,34.13,27.2,28,18.89,28.4,11,30.93,8.9,39.79Z" transform="translate(-2.44)" fill="#727171"/><path d="M9.57,42.2c3.39-.64,6.18-.85,8.85,1.67,1.47,1.39,2.59,3.09,3.92,4.6A2.51,2.51,0,0,0,26.27,48c3-6.36,3.41-13.08,3.43-20a2.52,2.52,0,0,0-2.5-2.5C17.9,26,9.12,29.33,6.49,39.12c-.83,3.11,4,4.44,4.82,1.33,2-7.5,8.88-9.55,15.89-10L24.7,28c0,6-.18,12-2.75,17.49l3.93-.51c-2.16-2.44-3.92-5.18-6.82-6.83-3.37-1.91-7.18-1.41-10.82-.73C5.08,38,6.42,42.79,9.57,42.2Z" transform="translate(-2.44)" fill="#727171"/><path d="M26.74,28c0,6.18-.12,12.87-2.63,18.75A29.13,29.13,0,0,0,38.85,57.77l.24-29.24A80,80,0,0,0,26.74,28Z" transform="translate(-2.44)" fill="#ecdc82" stroke="#ecdc82" stroke-linecap="square" stroke-miterlimit="10" stroke-width="5"/><path d="M121.76,165.53c-5.53,6.73-11.73,12.71-18,18.86a1.86,1.86,0,0,1-3,.19l-8.7-6.14a3.16,3.16,0,0,0-1.47-.69,3.09,3.09,0,0,0-2.17,1,30.48,30.48,0,0,0-9.27,13.11" transform="translate(-2.44)" fill="none" stroke="#ecdc82" stroke-linecap="round" stroke-miterlimit="10" stroke-width="5"/><path d="M100.27,185.47a22.89,22.89,0,0,0-10,13.45" transform="translate(-2.44)" fill="none" stroke="#ecdc82" stroke-linecap="round" stroke-miterlimit="10" stroke-width="5"/><path d="M79.3,154.06l-12,10.24a33.86,33.86,0,0,1-2.83,2.41c-1.47,1-.33,1.3-1.67.8-1.53-.57-3.87-3.84-5.21-4.93-2-1.62-3.5-2.75-5.91-1.24-3.74,2.37-7.05,7.05-10,10.34-2.15,2.39,1.38,5.93,3.54,3.54,2.83-3.14,6.17-8.07,10-10.06H52.64c4,2,7.21,9.8,12.24,7.57,2.84-1.26,5.7-4.67,8.07-6.69l9.89-8.44c2.45-2.09-1.1-5.61-3.54-3.54Z" transform="translate(-2.44)" fill="#c1b9a3"/><path d="M59.62,168.94a98.33,98.33,0,0,0-8.93,10.35c-1.94,2.57,2.4,5.07,4.32,2.52a89.28,89.28,0,0,1,8.15-9.33c2.28-2.28-1.26-5.82-3.54-3.54Z" transform="translate(-2.44)" fill="#c1b9a3"/><path d="M81,145.51c-1.47,4.25,1.77,9.16,6.1,10.36s9.09-.73,12.22-4" transform="translate(-2.44)" fill="#c1b9a3"/><path d="M78.62,144.85A11.11,11.11,0,0,0,85,157.72c5.66,2.55,12,0,16.16-4,2.33-2.23-1.21-5.76-3.54-3.54-2.54,2.42-6.17,4.38-9.78,3.32a6.11,6.11,0,0,1-4.36-7.29c.83-3.11-4-4.44-4.82-1.33Z" transform="translate(-2.44)" fill="#c1b9a3"/><path d="M43.67,28.4c-.49,19.37-1,38.92,2.76,57.93S58.47,124,73,136.83a69,69,0,0,0,33.13,15.91c2.47.45,5.1.83,7,2.45,1.45,1.23,2.28,3,3.35,4.58,4.91,7.15,15.94,9.1,23,4.08,2.13-1.52,4-3.58,6.46-4.38a15.19,15.19,0,0,1,5.49-.34c17.54.93,35-1,51.37-7.29,7.37-2.87,16.56-1.73,24.39-2.65A192.13,192.13,0,0,0,255,143.83c3.46-.94,7.67-3.06,7.25-6.62a118.71,118.71,0,0,1-51.47-12.49c-13.45-6.72-28.73-6.93-40.94-17C147.57,89.5,154,53.55,130.85,36c-6.77-5.13-15.2-7.53-23.54-9.19a167.74,167.74,0,0,0-38-3.13c-2,.06-18.5,2.31-25,4.51" transform="translate(-2.44)" fill="#f1f1ef"/><path d="M41.17,28.4c-1.08,42.8.35,96.9,43.88,119.71a72.6,72.6,0,0,0,14.11,5.6c2.33.65,4.68,1.12,7.05,1.58,4.12.81,5.83,2.5,8.12,5.74a19.75,19.75,0,0,0,19.95,7.71c4.37-.9,6.82-3.64,10.49-5.8,3.26-1.91,6.83-1.28,10.43-1.17s7.5.09,11.24-.09a121,121,0,0,0,35.28-6.79c6.29-2.26,12.36-2.59,19-2.81a130.71,130.71,0,0,0,18.35-2.15c6.23-1.1,13-2.1,18.92-4.5,3.73-1.53,6.64-4,6.72-8.23a2.54,2.54,0,0,0-2.5-2.5,118.29,118.29,0,0,1-32.64-5.14c-9.84-3-18.74-8.2-28.52-11.34-9.32-3-19.14-5-27.33-10.63-7.11-4.93-11.84-12.27-15.1-20.15-5.71-13.77-7.68-29.12-15.76-41.87-10.21-16.12-28-20.63-45.91-23-17.6-2.33-36.22-2.27-53.32,3.19-3.05,1-1.75,5.81,1.33,4.82,14.88-4.76,30.9-5.21,46.3-3.68C102.1,28,114,29.59,123.85,34.58c7.89,4,13.55,10.6,17.45,18.44,6.77,13.62,8.48,29.2,15.68,42.65a45.62,45.62,0,0,0,14.21,16.24c7.65,5.27,16.73,7.57,25.5,10.2,10.86,3.26,20.69,8.94,31.54,12.27a123.59,123.59,0,0,0,34,5.31l-2.5-2.5c-.1,4.7-11.42,5.76-14.57,6.44a167.56,167.56,0,0,1-17.93,3c-9.6,1-18.46.42-27.69,3.71a114.09,114.09,0,0,1-33.07,6.3c-5.32.25-10.6,0-15.93-.11-4.83-.09-7.55,1.52-11.29,4.32a14.38,14.38,0,0,1-12.64,2.79c-5.23-1.34-7.17-4.84-10.3-8.74-2.48-3.1-5.76-3.86-9.49-4.61A73.93,73.93,0,0,1,92,145.88c-18.63-8-31.53-24.27-38.37-43-8.68-23.8-8-49.5-7.41-74.44.08-3.22-4.92-3.22-5,0Z" transform="translate(-2.44)" fill="#f1f1ef"/><path d="M227.21,149.17c11.61-1.36,23.41-3.45,34.85-5.91,6.61-1.42,14.13-4.08,16.23-10.51-22,.51-47.37,2-67.55-8-8.74-4.37-15.19-12.13-22.24-18.93-2.87-2.76-5.12-5.09-9.47-3.85a13.16,13.16,0,0,0-8.63,8.1,6.59,6.59,0,0,0-.3,4.14,8.8,8.8,0,0,0,3.12,3.81q7,5.85,14.1,11.66c4.12,3.39,7.44,7.16,11.39,10.68A51.08,51.08,0,0,0,211,148.7C215.64,150.83,222.21,149.76,227.21,149.17Z" transform="translate(-2.44)" fill="#b4c2cb"/><path d="M227.21,151.67q17.43-2.1,34.61-5.81c7.83-1.69,15.71-4.47,18.88-12.45.6-1.51-.92-3.2-2.41-3.16-14.88.36-30,1.16-44.75-1.18A72.79,72.79,0,0,1,212,122.56c-6.65-3.38-11.9-8.67-17.09-13.91-3.48-3.51-7.57-9.1-13-9.52-4.95-.39-10,3.12-12.51,7.2-2.88,4.7-2.53,9.29,1.54,13,5.73,5.24,12.18,9.67,17.86,15s11.07,11.12,18,15c6.59,3.73,13.09,3.21,20.39,2.32,3.15-.38,3.19-5.39,0-5a58,58,0,0,1-10.55.76c-4.33-.27-8.08-2.63-11.52-5.11-6.83-4.9-12.38-11.43-18.87-16.78q-4.59-3.78-9.17-7.58c-1.2-1-3.69-2.45-4.32-3.94-1-2.42.67-5.15,2.26-6.82,1.76-1.86,4.79-3.69,7.48-2.92,1.59.46,3.07,2.17,4.21,3.27,2.76,2.65,5.38,5.44,8.12,8.11,10.58,10.33,22.79,15.88,37.37,18.23,15.24,2.45,30.72,1.73,46.08,1.36l-2.41-3.16c-3,7.64-13.92,8.7-20.84,10.08-9.22,1.84-18.49,3.38-27.83,4.5C224.06,147.05,224,152.06,227.21,151.67Z" transform="translate(-2.44)" fill="#b4c2cb"/><path d="M43.67,27.38c-.35,13.65-.69,27.34.45,41,.76,9.07,1,17.7,10.31,22.18A30.25,30.25,0,0,0,66.12,93.1a36.1,36.1,0,0,0,9.2-.59A26.49,26.49,0,0,0,88.68,85c3.78-3.89,4.48-9.4,10.36-10.56,10-2,19.14,7,27,11.92,8.2,5.2,16.41,10.4,24.73,15.41,6.66,4,15.25,9.45,23.4,8.11-1.43-1-2.95-2-4.34-3.15C147.57,88.49,154,52.54,130.85,35c-6.77-5.13-15.2-7.53-23.54-9.19a167.74,167.74,0,0,0-38-3.13c-2,.06-18.5,2.31-25,4.51" transform="translate(-2.44)" fill="#b4c2cb"/><path d="M41.17,27.38c-.4,15.83-.93,31.87,1.07,47.62,1.49,11.79,8.42,18.87,20.44,20.31C75.84,96.88,87,92.57,94.31,81.41c4.77-7.32,12.72-4.58,19.07-.68,5.84,3.59,11.32,7.77,17.12,11.44,7.58,4.79,15.16,9.62,22.92,14.12,6.33,3.67,13.23,6.95,20.72,6.1a2.52,2.52,0,0,0,1.26-4.66C155.22,93.47,155.66,68.63,145,48.37a44.54,44.54,0,0,0-24.72-21.7C106.18,21.52,90,20.1,75,20.06a104.75,104.75,0,0,0-31.41,4.69c-3.05,1-1.75,5.81,1.33,4.82C57,25.71,70.11,24.65,82.68,25.26c17.69.85,40.25,2.85,52.52,17.27C144.13,53,146.78,67.2,151,79.93c4.34,13.22,10.4,24,21.91,32.12l1.26-4.66c-9.44,1.07-17.78-5.11-25.45-9.78-7.95-4.85-16-9.64-23.68-14.91-8.72-6-24.13-18-33.37-6.21C89.58,79.1,88.27,82,85.8,84.33A23.67,23.67,0,0,1,74.65,90.1c-8.4,1.77-21.2.73-25.5-8C45.81,75.36,46.32,66,46,58.6c-.4-10.4-.13-20.82.13-31.22.08-3.22-4.92-3.22-5,0Z" transform="translate(-2.44)" fill="#b4c2cb"/><path d="M174.65,120.39c-4.35-.4-54-4.83-54-5.08,1.7-32.19,8.66-65.48,17-96.56,1.28-4.78,2.84-9.85,6.67-13,5-4.11,12.28-3.58,18.74-2.83L274.29,15.86c.61,2.62-2.6,4.35-5.19,5.07-15.55,4.34-32.73,8.76-42,22-8,11.39-7.94,26.31-9.39,40.16s-6.07,29.31-18.66,35.25C191.57,121.84,182.88,121.15,174.65,120.39Z" transform="translate(-2.44)" fill="#b4c2cb"/><path d="M174.65,117.89c-9.2-.84-18.4-1.66-27.6-2.5q-8.61-.79-17.21-1.61c-2-.19-4-.38-6-.59-.89-.09-3.26-.7-1.9,0l1.24,2.16a401.73,401.73,0,0,1,8.13-59.24c2.05-9.87,4.38-19.68,6.9-29.44,2.27-8.79,3.71-20.15,14.6-21.51C161.88,4,171.92,6.47,181,7.52l30.78,3.57,62.55,7.26-2.5-2.5c.12,3.22-15.61,6.17-18.39,7.11a74.2,74.2,0,0,0-17.23,7.95C225.37,38,219.67,48.82,217.53,61.4c-2.21,13-1.42,26.54-6.29,39-2.39,6.12-6.31,11.95-12.22,15.13-7.43,4-16.29,3.1-24.37,2.37-3.2-.29-3.18,4.71,0,5,14,1.27,27.88.48,36.67-12,8.19-11.66,8.65-26.31,10-39.95.81-8.22,2.05-16.79,6.23-24.07,3.86-6.72,10-11.43,16.81-14.85s13.95-5.45,21.13-7.47c4.58-1.29,11.54-2.59,11.3-8.68a2.58,2.58,0,0,0-2.5-2.5L168,1c-12.55-1.46-25.6-2.58-31,11.33-2.83,7.33-4.36,15.35-6.21,23q-2.91,12-5.33,24.08a403.23,403.23,0,0,0-7.36,55.91,2.44,2.44,0,0,0,1.24,2.16c2.18,1,5.46.83,7.8,1.06,5.93.58,11.86,1.13,17.78,1.67,9.89.91,19.78,1.78,29.67,2.69C177.85,123.19,177.83,118.19,174.65,117.89Z" transform="translate(-2.44)" fill="#b4c2cb"/><path d="M155.36,99a79.17,79.17,0,0,1-8,6.35c-1.73,1.21-26.95,14-26.73,9.94,1.7-32.19,8.66-65.47,17-96.55,1.28-4.78,2.84-9.85,6.67-13,5-4.11,12.28-3.58,18.74-2.83L274.29,15.86c.61,2.62-2.6,4.35-5.19,5.07-20.78,5.8-41.33,8.4-60.76,18.81-11.08,5.93-21.57,13.57-28.59,24-3.75,5.56-6.42,11.76-9.83,17.52A77.29,77.29,0,0,1,155.36,99Z" transform="translate(-2.44)" fill="#7d9bab"/><path d="M153.59,97.25c-7.79,6.92-17.21,11.62-27,15.08-.43.15-4.59,1-4.68,1.27h0q1.49,3.12,1.33.77c.5-.85.16-2.7.23-3.72q.29-4.2.68-8.4c1-10.46,2.46-20.88,4.28-31.23s4-20.53,6.38-30.7c2.14-9,3.61-19.25,7.59-27.69C147.32,2.12,159.7,5.05,169,6.14l31.77,3.69,73.47,8.53-2.5-2.5c.14,3.62-14.74,5.6-17.56,6.27-6.44,1.54-12.9,3-19.29,4.77-12.29,3.38-24.15,8-35,14.81-9.75,6.13-18.38,13.9-24.32,23.85-3.24,5.41-5.79,11.21-9.18,16.54a77.8,77.8,0,0,1-12.86,15.16c-2.37,2.19,1.18,5.72,3.54,3.54,9.76-9,15.41-19.73,21.91-31.13C186,57.49,196.71,48.9,208.88,42.29c12.67-6.88,26.57-10.56,40.51-13.88,6.77-1.61,13.75-2.91,20.38-5.07,3.63-1.18,7.19-3.23,7-7.49a2.58,2.58,0,0,0-2.5-2.5L198.83,4.6C186.42,3.16,174,1.51,161.58.28,153.21-.55,144.3.06,139.3,7.79c-2.35,3.63-3.41,8-4.51,12.09q-2.42,9.06-4.6,18.19c-2.79,11.71-5.25,23.5-7.25,35.37-1.91,11.4-3.41,22.88-4.3,34.41-.37,4.85-2,11.63,4.89,10.55,5.78-.9,11.59-4.1,16.81-6.6a69,69,0,0,0,16.79-11C159.54,98.64,156,95.12,153.59,97.25Z" transform="translate(-2.44)" fill="#7d9bab"/><path d="M68.8,120.56A26.13,26.13,0,0,0,76.34,129c2.1,1.55,4.59-1.4,3.42-3.42A34.4,34.4,0,0,0,73,117.24c-1.67-1.51-5.19-.07-4.18,2.43a17.36,17.36,0,0,0,5.79,7.56,2.52,2.52,0,0,0,3.42-.9,2.56,2.56,0,0,0-.9-3.42,11.06,11.06,0,0,1-3.49-4.57l-4.18,2.43a30,30,0,0,1,6,7.34l3.42-3.42A20.42,20.42,0,0,1,73.12,118c-1.56-2.82-5.88-.3-4.32,2.52Z" transform="translate(-2.44)" fill="#dededd"/><path d="M82.59,116.4a11.6,11.6,0,0,0,4.32,4.2,2.55,2.55,0,0,0,3-.39,2.66,2.66,0,0,0,.39-3,11.52,11.52,0,0,0-3.16-4.26,2.5,2.5,0,1,0-3.54,3.54l.83,1a2.51,2.51,0,0,0,3.54,0,2.57,2.57,0,0,0,0-3.54l-.83-1-3.54,3.54a10.6,10.6,0,0,1,.82.76l.33.37c0,.05.36.48.15.17A10.25,10.25,0,0,1,86,119.7l3.42-3.42a10.69,10.69,0,0,1-.92-.57c-.33-.23.24.21-.07-.05l-.45-.4a9.58,9.58,0,0,1-.66-.7c.22.26,0,0-.12-.17s-.22-.34-.32-.51a2.5,2.5,0,0,0-4.32,2.52Z" transform="translate(-2.44)" fill="#dededd"/><path d="M93.76,108.63a5.38,5.38,0,0,0,2.47,2.91,2.51,2.51,0,0,0,3.67-2.82,4.74,4.74,0,0,0-3.28-3.44,2.53,2.53,0,0,0-2.82,1.15,3,3,0,0,0-.34,1.26,2.47,2.47,0,0,0,.73,1.77l1.35,1.05a2.73,2.73,0,0,0,1.77.73,2.54,2.54,0,0,0,1.77-.73c.82-.9,1.1-2.68,0-3.54l-1.35-1.05-2.43,4.18c.47.15-.48-.25-.08,0s-.46-.39,0,0c.18.16-.37-.5-.07,0q.13.26-.11-.27a2,2,0,0,1,.07.27l3.67-2.82-.33-.19c-.28-.15.53.34.1.05-.26-.18.07,0,.1.15L98.5,107q-.14-.25.09.25a2.76,2.76,0,0,0-1.15-1.49,2.5,2.5,0,0,0-3.42.9,2.41,2.41,0,0,0-.25,1.93Z" transform="translate(-2.44)" fill="#dededd"/><path d="M19.76,241.88q0,5.38-2.35,8T10,252.44a33.52,33.52,0,0,1-7.08-.72V217.16a30.53,30.53,0,0,1,6.75-.72q9.33,0,9.33,9a9.77,9.77,0,0,1-1.32,5.18,5.57,5.57,0,0,1-3.51,2.69v.1a6,6,0,0,1,4.07,2.83A10.34,10.34,0,0,1,19.76,241.88ZM8.31,230.79H9.38q4.69,0,4.7-4.18,0-4-4-4a5.31,5.31,0,0,0-1.8.29Zm0,5.86V246a6.5,6.5,0,0,0,1.93.29A4.11,4.11,0,0,0,13.59,245a6,6,0,0,0,1.06-3.91q0-4.42-4.86-4.42Z" transform="translate(-2.44)" fill="#7d9bab" stroke="#7d9bab" stroke-miterlimit="10"/><path d="M23.72,230a7.16,7.16,0,0,1,6.3-3.48A7.12,7.12,0,0,1,36.31,230q2.27,3.48,2.27,9.48T36.31,249A7.12,7.12,0,0,1,30,252.44a7.16,7.16,0,0,1-6.3-3.48q-2.28-3.48-2.28-9.48T23.72,230ZM30,246.83q3.47,0,3.47-7.34T30,232.14q-3.51,0-3.51,7.34T30,246.83Z" transform="translate(-2.44)" fill="#7d9bab" stroke="#7d9bab" stroke-miterlimit="10"/><path d="M42.53,230a7.43,7.43,0,0,1,12.59,0q2.27,3.48,2.27,9.48T55.12,249a7.43,7.43,0,0,1-12.59,0q-2.28-3.48-2.28-9.48T42.53,230Zm6.3,16.82q3.47,0,3.47-7.34t-3.47-7.34q-3.51,0-3.51,7.34T48.84,246.83Z" transform="translate(-2.44)" fill="#7d9bab" stroke="#7d9bab" stroke-miterlimit="10"/><path d="M72.73,233.77a10.23,10.23,0,0,0-5.37-1.68,3.26,3.26,0,0,0-2.07.5,1.87,1.87,0,0,0-.59,1.51,2.09,2.09,0,0,0,.53,1.51,3.68,3.68,0,0,0,1.88.84,8.76,8.76,0,0,1,5.39,2.74,8.65,8.65,0,0,1,1.62,5.57,8.1,8.1,0,0,1-1.85,5.62,6.77,6.77,0,0,1-5.32,2.06,12.3,12.3,0,0,1-7.4-2.4l1-5.57a9.1,9.1,0,0,0,6,2.35q2.44,0,2.44-2.21a2,2,0,0,0-.47-1.44,4.13,4.13,0,0,0-1.95-.82,9.15,9.15,0,0,1-5.31-2.9,8.64,8.64,0,0,1-1.61-5.5,7.71,7.71,0,0,1,1.85-5.42,7,7,0,0,1,5.45-2,13.9,13.9,0,0,1,6.75,1.78Z" transform="translate(-2.44)" fill="#7d9bab" stroke="#7d9bab" stroke-miterlimit="10"/><path d="M85.27,228h5.47v5.42H85.27v9a9.25,9.25,0,0,0,.42,3.46,1.53,1.53,0,0,0,1.51.86,6.4,6.4,0,0,0,2.89-.77l.58,5.57a12,12,0,0,1-4.7,1,5.11,5.11,0,0,1-4.52-2.06Q80,248.31,80,243.66V233.39H76.59V228H80v-9.12h5.24Z" transform="translate(-2.44)" fill="#7d9bab" stroke="#7d9bab" stroke-miterlimit="10"/><path d="M106.45,221.29a10.17,10.17,0,0,1,17.33,0q3.23,4.85,3.23,13.15t-3.23,13.15a10.17,10.17,0,0,1-17.33,0q-3.23-4.85-3.23-13.15T106.45,221.29Zm4,21.55a5.19,5.19,0,0,0,9.29,0q1.66-2.88,1.66-8.4t-1.66-8.4a5.19,5.19,0,0,0-9.29,0q-1.66,2.88-1.66,8.4T110.47,242.84Z" transform="translate(-2.44)" fill="#7d9bab" stroke="#7d9bab" stroke-miterlimit="10"/><path d="M129.81,227h4.76l.13,3.46h.06a8.38,8.38,0,0,1,2.3-2.88,4.56,4.56,0,0,1,2.81-1.06,4.63,4.63,0,0,1,4.41,2.64q1.38,2.64,1.38,9V252h-5.08V239a16.05,16.05,0,0,0-.55-5.21,2,2,0,0,0-1.93-1.32q-1.19,0-2.17,1.92a9.68,9.68,0,0,0-1,4.46V252h-5.15Z" transform="translate(-2.44)" fill="#7d9bab" stroke="#7d9bab" stroke-miterlimit="10"/><path d="M159.43,217.16a33.52,33.52,0,0,1,7.08-.72q10.29,0,10.29,11.42,0,6.19-2.4,9.38a8.24,8.24,0,0,1-7,3.19,19.31,19.31,0,0,1-2.57-.19V252h-5.37Zm5.37,17a8.9,8.9,0,0,0,2,.24,4.31,4.31,0,0,0,3.59-1.61,7.08,7.08,0,0,0,1.27-4.49q0-5.71-4.86-5.71a7,7,0,0,0-2,.29Z" transform="translate(-2.44)" fill="#7d9bab" stroke="#7d9bab" stroke-miterlimit="10"/><path d="M179.44,227h4.89l0,4.8h.06q2.8-5.28,7.65-5.28v6.14a6.72,6.72,0,0,0-5.5,2.3,9.6,9.6,0,0,0-1.9,6.29V252h-5.24Z" transform="translate(-2.44)" fill="#7d9bab" stroke="#7d9bab" stroke-miterlimit="10"/><path d="M199.34,242a6.54,6.54,0,0,0,1.33,3.67,3.58,3.58,0,0,0,2.88,1.32,7.66,7.66,0,0,0,4.66-1.73l1.13,5.23a11,11,0,0,1-6.27,1.92,7.46,7.46,0,0,1-6.42-3.5q-2.43-3.5-2.43-9.46t2.25-9.48a6.9,6.9,0,0,1,6-3.48,6.81,6.81,0,0,1,6,3.34q2.15,3.34,2.16,9.53a24,24,0,0,1-.13,2.64Zm0-4.75h6.63q0-5.52-3.28-5.52a2.65,2.65,0,0,0-2.35,1.42A8.75,8.75,0,0,0,199.31,237.27Z" transform="translate(-2.44)" fill="#7d9bab" stroke="#7d9bab" stroke-miterlimit="10"/><path d="M213.69,227h4.66l.1,3.36h.06q1.86-3.84,4.41-3.84a3.62,3.62,0,0,1,2.51.86,7.42,7.42,0,0,1,1.74,3h.06q2.25-3.84,5-3.84a4.2,4.2,0,0,1,4,2.26q1.24,2.26,1.24,7.68V252h-5V237.9a14.64,14.64,0,0,0-.43-4.46,1.59,1.59,0,0,0-1.59-1.1q-1,0-1.71,1.56a9.76,9.76,0,0,0-.71,4V252h-5V237.9a15.18,15.18,0,0,0-.42-4.46,1.56,1.56,0,0,0-1.58-1.1q-1,0-1.71,1.56a9.76,9.76,0,0,0-.71,4V252h-5Z" transform="translate(-2.44)" fill="#7d9bab" stroke="#7d9bab" stroke-miterlimit="10"/><path d="M242.05,222.2V216h5.43v6.24Zm0,29.76V227h5.43v25Z" transform="translate(-2.44)" fill="#7d9bab" stroke="#7d9bab" stroke-miterlimit="10"/><path d="M264.76,233.77a10.23,10.23,0,0,0-5.37-1.68,3.26,3.26,0,0,0-2.07.5,1.87,1.87,0,0,0-.59,1.51,2.09,2.09,0,0,0,.53,1.51,3.68,3.68,0,0,0,1.88.84,8.76,8.76,0,0,1,5.39,2.74,8.65,8.65,0,0,1,1.62,5.57,8.1,8.1,0,0,1-1.85,5.62,6.77,6.77,0,0,1-5.32,2.06,12.3,12.3,0,0,1-7.4-2.4l1-5.57a9.1,9.1,0,0,0,6,2.35q2.44,0,2.44-2.21a2,2,0,0,0-.47-1.44,4.13,4.13,0,0,0-1.95-.82,9.15,9.15,0,0,1-5.31-2.9,8.64,8.64,0,0,1-1.61-5.5,7.71,7.71,0,0,1,1.85-5.42,7,7,0,0,1,5.45-2,13.9,13.9,0,0,1,6.75,1.78Z" transform="translate(-2.44)" fill="#7d9bab" stroke="#7d9bab" stroke-miterlimit="10"/><path d="M273.41,242a6.54,6.54,0,0,0,1.33,3.67,3.58,3.58,0,0,0,2.88,1.32,7.66,7.66,0,0,0,4.66-1.73l1.13,5.23a11,11,0,0,1-6.27,1.92,7.46,7.46,0,0,1-6.42-3.5q-2.43-3.5-2.43-9.46t2.25-9.48a6.9,6.9,0,0,1,6-3.48,6.81,6.81,0,0,1,6,3.34q2.15,3.34,2.16,9.53a24,24,0,0,1-.13,2.64Zm0-4.75H280q0-5.52-3.28-5.52a2.65,2.65,0,0,0-2.35,1.42A8.75,8.75,0,0,0,273.37,237.27Z" transform="translate(-2.44)" fill="#7d9bab" stroke="#7d9bab" stroke-miterlimit="10"/><path d="M73.18,39.28a12.82,12.82,0,0,0-9.52,5.59,5.77,5.77,0,1,0,9.52-5.59Z" transform="translate(-2.44)" fill="#727171"/></g></g></svg>