<?xml version="1.0" encoding="UTF-8"?>
<!DOCTYPE svg PUBLIC "-//W3C//DTD SVG 1.1//EN" "http://www.w3.org/Graphics/SVG/1.1/DTD/svg11.dtd">
<svg version="1.1" xmlns="http://www.w3.org/2000/svg" xmlns:xlink="http://www.w3.org/1999/xlink" x="0" y="0" width="99" height="99" viewBox="0, 0, 99, 99">
  <g id="レイヤー_1" transform="translate(-313.5, -296.5)">
    <g>
      <path d="M363.5,395 C336.714,395 315,373.286 315,346.5 C315,319.714 336.714,298 363.5,298 C390.286,298 412,319.714 412,346.5 C412,373.286 390.286,395 363.5,395 z" fill="#FFFFFF"/>
      <path d="M363.5,395 C336.714,395 315,373.286 315,346.5 C315,319.714 336.714,298 363.5,298 C390.286,298 412,319.714 412,346.5 C412,373.286 390.286,395 363.5,395 z" fill-opacity="0" stroke="#000000" stroke-width="1"/>
    </g>
    <text transform="matrix(1, 0, 0, 1, 363, 346)">
      <tspan x="-23.49" y="6.5" font-family="HiraKakuPro-W3" font-size="18" fill="#545454">TEST</tspan>
    </text>
  </g>
</svg>
