<svg xmlns="http://www.w3.org/2000/svg" viewBox="0 0 274.44 201.41"><title>blue</title><g id="レイヤー_2" data-name="レイヤー 2"><g id="レイヤー_4" data-name="レイヤー 4"><path d="M2.51,39.79A17.54,17.54,0,0,1,9,39.39c3.74.69,6.12,4.23,8.36,7l.3.34C20.66,40.83,20.8,34.13,20.81,28,12.49,28.4,4.58,30.93,2.51,39.79Z" fill="#727171"/><path d="M3.17,42.2c3.39-.64,6.18-.85,8.85,1.67,1.47,1.39,2.59,3.09,3.92,4.6A2.51,2.51,0,0,0,19.87,48c3-6.36,3.41-13.08,3.43-20a2.52,2.52,0,0,0-2.5-2.5C11.51,26,2.72,29.33.1,39.12c-.83,3.11,4,4.44,4.82,1.33,2-7.5,8.88-9.55,15.89-10L18.31,28c0,6-.18,12-2.75,17.49l3.93-.51c-2.16-2.44-3.92-5.18-6.82-6.83-3.37-1.91-7.18-1.41-10.82-.73C-1.32,38,0,42.79,3.17,42.2Z" fill="#727171"/><path d="M20.34,28c0,6.18-.12,12.87-2.63,18.75A29.13,29.13,0,0,0,32.45,57.77l.24-29.24A80,80,0,0,0,20.34,28Z" fill="#ecdc82" stroke="#ecdc82" stroke-linecap="square" stroke-miterlimit="10" stroke-width="5"/><path d="M115.36,165.53c-5.53,6.73-11.73,12.71-18,18.86a1.86,1.86,0,0,1-3,.19l-8.7-6.14a3.16,3.16,0,0,0-1.47-.69,3.09,3.09,0,0,0-2.17,1,30.48,30.48,0,0,0-9.27,13.11" fill="none" stroke="#ecdc82" stroke-linecap="round" stroke-miterlimit="10" stroke-width="5"/><path d="M93.87,185.47a22.89,22.89,0,0,0-10,13.45" fill="none" stroke="#ecdc82" stroke-linecap="round" stroke-miterlimit="10" stroke-width="5"/><path d="M72.9,154.06l-12,10.24a33.86,33.86,0,0,1-2.83,2.41c-1.47,1-.33,1.3-1.67.8-1.53-.57-3.87-3.84-5.21-4.93-2-1.62-3.5-2.75-5.91-1.24-3.74,2.37-7.05,7.05-10,10.34-2.15,2.39,1.38,5.93,3.54,3.54,2.83-3.14,6.17-8.07,10-10.06H46.24c4,2,7.21,9.8,12.24,7.57,2.84-1.26,5.7-4.67,8.07-6.69l9.89-8.44c2.45-2.09-1.1-5.61-3.54-3.54Z" fill="#c1b9a3"/><path d="M53.23,168.94a98.33,98.33,0,0,0-8.93,10.35c-1.94,2.57,2.4,5.07,4.32,2.52a89.28,89.28,0,0,1,8.15-9.33c2.28-2.28-1.26-5.82-3.54-3.54Z" fill="#c1b9a3"/><path d="M74.63,145.51c-1.47,4.25,1.77,9.16,6.1,10.36s9.09-.73,12.22-4" fill="#c1b9a3"/><path d="M72.22,144.85a11.11,11.11,0,0,0,6.34,12.87c5.66,2.55,12,0,16.16-4,2.33-2.23-1.21-5.76-3.54-3.54-2.54,2.42-6.17,4.38-9.78,3.32A6.11,6.11,0,0,1,77,146.18c.83-3.11-4-4.44-4.82-1.33Z" fill="#c1b9a3"/><path d="M37.27,28.4c-.49,19.37-1,38.92,2.76,57.93s12,37.71,26.58,50.51a69,69,0,0,0,33.13,15.91c2.47.45,5.1.83,7,2.45,1.45,1.23,2.28,3,3.35,4.58,4.91,7.15,15.94,9.1,23,4.08,2.13-1.52,4-3.58,6.46-4.38a15.19,15.19,0,0,1,5.49-.34c17.54.93,35-1,51.37-7.29,7.37-2.87,16.56-1.73,24.39-2.65a192.13,192.13,0,0,0,27.75-5.35c3.46-.94,7.67-3.06,7.25-6.62a118.71,118.71,0,0,1-51.47-12.49c-13.45-6.72-28.73-6.93-40.94-17C141.17,89.5,147.65,53.55,124.45,36c-6.77-5.13-15.2-7.53-23.54-9.19a167.74,167.74,0,0,0-38-3.13c-2,.06-18.5,2.31-25,4.51" fill="#f1f1ef"/><path d="M34.77,28.4c-1.08,42.8.35,96.9,43.88,119.71a72.6,72.6,0,0,0,14.11,5.6c2.33.65,4.68,1.12,7.05,1.58,4.12.81,5.83,2.5,8.12,5.74a19.75,19.75,0,0,0,19.95,7.71c4.37-.9,6.82-3.64,10.49-5.8,3.26-1.91,6.83-1.28,10.43-1.17s7.5.09,11.24-.09a121,121,0,0,0,35.28-6.79c6.29-2.26,12.36-2.59,19-2.81a130.71,130.71,0,0,0,18.35-2.15c6.23-1.1,13-2.1,18.92-4.5,3.73-1.53,6.64-4,6.72-8.23a2.54,2.54,0,0,0-2.5-2.5,118.29,118.29,0,0,1-32.64-5.14c-9.84-3-18.74-8.2-28.52-11.34-9.32-3-19.14-5-27.33-10.63-7.11-4.93-11.84-12.27-15.1-20.15-5.71-13.77-7.68-29.12-15.76-41.87-10.21-16.12-28-20.63-45.91-23C73,20.23,54.34,20.29,37.24,25.76c-3.05,1-1.75,5.81,1.33,4.82,14.88-4.76,30.9-5.21,46.3-3.68,10.84,1.08,22.76,2.69,32.59,7.68,7.89,4,13.55,10.6,17.45,18.44,6.77,13.62,8.48,29.2,15.68,42.65a45.62,45.62,0,0,0,14.21,16.24c7.65,5.27,16.73,7.57,25.5,10.2,10.86,3.26,20.69,8.94,31.54,12.27a123.59,123.59,0,0,0,34,5.31l-2.5-2.5c-.1,4.7-11.42,5.76-14.57,6.44a167.56,167.56,0,0,1-17.93,3c-9.6,1-18.46.42-27.69,3.71a114.09,114.09,0,0,1-33.07,6.3c-5.32.25-10.6,0-15.93-.11-4.83-.09-7.55,1.52-11.29,4.32a14.38,14.38,0,0,1-12.64,2.79c-5.23-1.34-7.17-4.84-10.3-8.74-2.48-3.1-5.76-3.86-9.49-4.61a73.93,73.93,0,0,1-14.85-4.45c-18.63-8-31.53-24.27-38.37-43-8.68-23.8-8-49.5-7.41-74.44.08-3.22-4.92-3.22-5,0Z" fill="#f1f1ef"/><path d="M220.82,149.17c11.61-1.36,23.41-3.45,34.85-5.91,6.61-1.42,14.13-4.08,16.23-10.51-22,.51-47.37,2-67.55-8-8.74-4.37-15.19-12.13-22.24-18.93-2.87-2.76-5.12-5.09-9.47-3.85A13.16,13.16,0,0,0,164,110a6.59,6.59,0,0,0-.3,4.14,8.8,8.8,0,0,0,3.12,3.81q7,5.85,14.1,11.66c4.12,3.39,7.44,7.16,11.39,10.68a51.08,51.08,0,0,0,12.31,8.38C209.24,150.83,215.81,149.76,220.82,149.17Z" fill="#a5afbf"/><path d="M220.82,151.67q17.43-2.1,34.61-5.81c7.83-1.69,15.71-4.47,18.88-12.45.6-1.51-.92-3.2-2.41-3.16-14.88.36-30,1.16-44.75-1.18a72.79,72.79,0,0,1-21.55-6.52c-6.65-3.38-11.9-8.67-17.09-13.91-3.48-3.51-7.57-9.1-13-9.52-4.95-.39-10,3.12-12.51,7.2-2.88,4.7-2.53,9.29,1.54,13,5.73,5.24,12.18,9.67,17.86,15s11.07,11.12,18,15c6.59,3.73,13.09,3.21,20.39,2.32,3.15-.38,3.19-5.39,0-5a58,58,0,0,1-10.55.76c-4.33-.27-8.08-2.63-11.52-5.11-6.83-4.9-12.38-11.43-18.87-16.78q-4.59-3.78-9.17-7.58c-1.2-1-3.69-2.45-4.32-3.94-1-2.42.67-5.15,2.26-6.82,1.76-1.86,4.79-3.69,7.48-2.92,1.59.46,3.07,2.17,4.21,3.27,2.76,2.65,5.38,5.44,8.12,8.11C199,126,211.24,131.55,225.82,133.9c15.24,2.45,30.72,1.73,46.08,1.36l-2.41-3.16c-3,7.64-13.92,8.7-20.84,10.08-9.22,1.84-18.49,3.38-27.83,4.5C217.66,147.05,217.62,152.06,220.82,151.67Z" fill="#a5afbf"/><path d="M37.27,27.38c-.35,13.65-.69,27.34.45,41,.76,9.07,1,17.7,10.31,22.18A30.25,30.25,0,0,0,59.72,93.1a36.1,36.1,0,0,0,9.2-.59A26.49,26.49,0,0,0,82.28,85c3.78-3.89,4.48-9.4,10.36-10.56,10-2,19.14,7,27,11.92,8.2,5.2,16.41,10.4,24.73,15.41,6.66,4,15.25,9.45,23.4,8.11-1.43-1-2.95-2-4.34-3.15C141.17,88.49,147.65,52.54,124.45,35c-6.77-5.13-15.2-7.53-23.54-9.19a167.74,167.74,0,0,0-38-3.13c-2,.06-18.5,2.31-25,4.51" fill="#a5afbf"/><path d="M34.77,27.38c-.4,15.83-.93,31.87,1.07,47.62,1.49,11.79,8.42,18.87,20.44,20.31,13.16,1.57,24.36-2.75,31.63-13.9,4.77-7.32,12.72-4.58,19.07-.68,5.84,3.59,11.32,7.77,17.12,11.44,7.58,4.79,15.16,9.62,22.92,14.12,6.33,3.67,13.23,6.95,20.72,6.1a2.52,2.52,0,0,0,1.26-4.66c-20.18-14.26-19.74-39.1-30.35-59.37a44.54,44.54,0,0,0-24.72-21.7c-14.16-5.15-30.33-6.57-45.29-6.6a104.75,104.75,0,0,0-31.41,4.69c-3.05,1-1.75,5.81,1.33,4.82,12.06-3.86,25.15-4.92,37.72-4.31,17.69.85,40.25,2.85,52.52,17.27,8.92,10.48,11.57,24.68,15.75,37.4,4.34,13.22,10.4,24,21.91,32.12l1.26-4.66c-9.44,1.07-17.78-5.11-25.45-9.78-7.95-4.85-16-9.64-23.68-14.91-8.72-6-24.13-18-33.37-6.21C83.18,79.1,81.87,82,79.4,84.33A23.67,23.67,0,0,1,68.25,90.1c-8.4,1.77-21.2.73-25.5-8C39.41,75.36,39.93,66,39.64,58.6c-.4-10.4-.13-20.82.13-31.22.08-3.22-4.92-3.22-5,0Z" fill="#a5afbf"/><path d="M168.25,120.39c-4.35-.4-54-4.83-54-5.08,1.7-32.19,8.66-65.48,17-96.56,1.28-4.78,2.84-9.85,6.67-13,5-4.11,12.28-3.58,18.74-2.83L267.89,15.86c.61,2.62-2.6,4.35-5.19,5.07-15.55,4.34-32.73,8.76-42,22-8,11.39-7.94,26.31-9.39,40.16s-6.07,29.31-18.66,35.25C185.17,121.84,176.48,121.15,168.25,120.39Z" fill="#a5afbf"/><path d="M168.25,117.89c-9.2-.84-18.4-1.66-27.6-2.5q-8.61-.79-17.21-1.61c-2-.19-4-.38-6-.59-.89-.09-3.26-.7-1.9,0l1.24,2.16a401.73,401.73,0,0,1,8.13-59.24c2.05-9.87,4.38-19.68,6.9-29.44,2.27-8.79,3.71-20.15,14.6-21.51,9.1-1.14,19.14,1.36,28.17,2.41l30.78,3.57,62.55,7.26-2.5-2.5C265.51,19.07,249.78,22,247,23a74.2,74.2,0,0,0-17.23,7.95C219,38,213.27,48.82,211.13,61.4c-2.21,13-1.42,26.54-6.29,39-2.39,6.12-6.31,11.95-12.22,15.13-7.43,4-16.29,3.1-24.37,2.37-3.2-.29-3.18,4.71,0,5,14,1.27,27.88.48,36.67-12,8.19-11.66,8.65-26.31,10-39.95.81-8.22,2.05-16.79,6.23-24.07C225,40.14,231.11,35.42,238,32s13.95-5.45,21.13-7.47c4.58-1.29,11.54-2.59,11.3-8.68a2.58,2.58,0,0,0-2.5-2.5L161.65,1c-12.55-1.46-25.6-2.58-31,11.33-2.83,7.33-4.36,15.35-6.21,23q-2.91,12-5.33,24.08a403.23,403.23,0,0,0-7.36,55.91,2.44,2.44,0,0,0,1.24,2.16c2.18,1,5.46.83,7.8,1.06,5.93.58,11.86,1.13,17.78,1.67,9.89.91,19.78,1.78,29.67,2.69C171.46,123.19,171.44,118.19,168.25,117.89Z" fill="#a5afbf"/><path d="M63.78,37.2a62.44,62.44,0,0,0-7.66,5.13,7.1,7.1,0,1,0,7.66-5.13Z" fill="#727171"/><path d="M149,99a79.17,79.17,0,0,1-8,6.35c-1.73,1.21-26.95,14-26.73,9.94,1.7-32.19,8.66-65.47,17-96.55,1.28-4.78,2.84-9.85,6.67-13,5-4.11,12.28-3.58,18.74-2.83L267.89,15.86c.61,2.62-2.6,4.35-5.19,5.07-20.78,5.8-41.33,8.4-60.76,18.81-11.08,5.93-21.57,13.57-28.59,24-3.75,5.56-6.42,11.76-9.83,17.52A77.29,77.29,0,0,1,149,99Z" fill="#587296"/><path d="M147.2,97.25c-7.79,6.92-17.21,11.62-27,15.08-.43.15-4.59,1-4.68,1.27h0q1.49,3.12,1.33.77c.5-.85.16-2.7.23-3.72q.29-4.2.68-8.4c1-10.46,2.46-20.88,4.28-31.23s4-20.53,6.38-30.7c2.14-9,3.61-19.25,7.59-27.69,4.95-10.52,17.32-7.58,26.66-6.49l31.77,3.69,73.47,8.53-2.5-2.5c.14,3.62-14.74,5.6-17.56,6.27-6.44,1.54-12.9,3-19.29,4.77-12.29,3.38-24.15,8-35,14.81-9.75,6.13-18.38,13.9-24.32,23.85C166,71,163.46,76.76,160.06,82.08A77.8,77.8,0,0,1,147.2,97.25c-2.37,2.19,1.18,5.72,3.54,3.54,9.76-9,15.41-19.73,21.91-31.13,6.93-12.17,17.67-20.76,29.84-27.36C215.15,35.41,229,31.73,243,28.41c6.77-1.61,13.75-2.91,20.38-5.07,3.63-1.18,7.19-3.23,7-7.49a2.58,2.58,0,0,0-2.5-2.5L192.43,4.6C180,3.16,167.61,1.51,155.18.28,146.82-.55,137.9.06,132.9,7.79c-2.35,3.63-3.41,8-4.51,12.09q-2.42,9.06-4.6,18.19c-2.79,11.71-5.25,23.5-7.25,35.37-1.91,11.4-3.41,22.88-4.3,34.41-.37,4.85-2,11.63,4.89,10.55,5.78-.9,11.59-4.1,16.81-6.6a69,69,0,0,0,16.79-11C153.14,98.64,149.6,95.12,147.2,97.25Z" fill="#587296"/><path d="M62.4,120.56A26.13,26.13,0,0,0,69.94,129c2.1,1.55,4.59-1.4,3.42-3.42a34.4,34.4,0,0,0-6.75-8.35c-1.67-1.51-5.19-.07-4.18,2.43a17.36,17.36,0,0,0,5.79,7.56,2.52,2.52,0,0,0,3.42-.9,2.56,2.56,0,0,0-.9-3.42,11.06,11.06,0,0,1-3.49-4.57l-4.18,2.43a30,30,0,0,1,6,7.34l3.42-3.42A20.42,20.42,0,0,1,66.72,118c-1.56-2.82-5.88-.3-4.32,2.52Z" fill="#dededd"/><path d="M76.19,116.4a11.6,11.6,0,0,0,4.32,4.2,2.55,2.55,0,0,0,3-.39,2.66,2.66,0,0,0,.39-3,11.52,11.52,0,0,0-3.16-4.26,2.5,2.5,0,1,0-3.54,3.54l.83,1a2.51,2.51,0,0,0,3.54,0,2.57,2.57,0,0,0,0-3.54l-.83-1-3.54,3.54a10.6,10.6,0,0,1,.82.76l.33.37c0,.05.36.48.15.17a10.25,10.25,0,0,1,1.08,1.95L83,116.28a10.69,10.69,0,0,1-.92-.57c-.33-.23.24.21-.07-.05l-.45-.4a9.58,9.58,0,0,1-.66-.7c.22.26,0,0-.12-.17s-.22-.34-.32-.51a2.5,2.5,0,0,0-4.32,2.52Z" fill="#dededd"/><path d="M87.36,108.63a5.38,5.38,0,0,0,2.47,2.91,2.51,2.51,0,0,0,3.67-2.82,4.74,4.74,0,0,0-3.28-3.44,2.53,2.53,0,0,0-2.82,1.15,3,3,0,0,0-.34,1.26,2.47,2.47,0,0,0,.73,1.77l1.35,1.05a2.73,2.73,0,0,0,1.77.73,2.54,2.54,0,0,0,1.77-.73c.82-.9,1.1-2.68,0-3.54l-1.35-1.05-2.43,4.18c.47.15-.48-.25-.08,0s-.46-.39,0,0c.18.16-.37-.5-.07,0q.13.26-.11-.27a2,2,0,0,1,.07.27l3.67-2.82L92,107c-.28-.15.53.34.1.05-.26-.18.07,0,.1.15L92.1,107q-.14-.25.09.25A2.76,2.76,0,0,0,91,105.8a2.5,2.5,0,0,0-3.42.9,2.41,2.41,0,0,0-.25,1.93Z" fill="#dededd"/></g></g></svg>